<svg id="phone-call_1_" data-name="phone-call (1)" xmlns="http://www.w3.org/2000/svg" width="30" height="32.579" viewBox="0 0 30 32.579">
  <path id="Path_41" data-name="Path 41" d="M22.7,20.584l-2.912,3.163L8.133,11.092,11.045,7.93,3.743,0S.254,3.486.019,6.251c-.314,3.7,3.293,10.43,8.957,16.58S20.836,32.9,24.244,32.558C26.79,32.3,30,28.514,30,28.514Z"/>
  <path id="Path_42" data-name="Path 42" d="M23.573,25.721h2.148a13.62,13.62,0,0,0-13.6-13.6v2.148A11.469,11.469,0,0,1,23.573,25.721Z" transform="translate(3.411 -11.249)"/>
  <path id="Path_43" data-name="Path 43" d="M88.561,90.709h2.148a8.6,8.6,0,0,0-8.592-8.592v2.148A6.451,6.451,0,0,1,88.561,90.709Z" transform="translate(-65.957 -76.237)"/>
</svg>
