<svg xmlns="http://www.w3.org/2000/svg" width="33.508" height="22.409" viewBox="0 0 33.508 22.409">
  <g id="email-filled-closed-envelope" transform="translate(0 -101.362)">
    <path id="Path_44" data-name="Path 44" d="M16.8,114.8H16.8a1.289,1.289,0,0,0,.7-.207l.055-.035.037-.023.638-.528,15.235-12.572a.179.179,0,0,0-.142-.073H.177a.172.172,0,0,0-.11.04l15.94,13.138A1.249,1.249,0,0,0,16.8,114.8ZM0,103.143v18.636l11.419-9.224Zm22.1,9.474,11.407,9.166V103.205Zm-3.627,2.992a2.717,2.717,0,0,1-3.349,0l-2.615-2.157L0,123.561v.032a.181.181,0,0,0,.179.178H33.331a.18.18,0,0,0,.177-.178v-.03l-12.5-10.044Z"/>
  </g>
</svg>
